<svg width="37" height="38" viewBox="0 0 37 38" fill="none" xmlns="http://www.w3.org/2000/svg">
<path d="M24 23.0237V20.0237H17V16.0237H24V13.0237L29 18.0237L24 23.0237ZM22 8.02368C22.5304 8.02368 23.0391 8.2344 23.4142 8.60947C23.7893 8.98454 24 9.49325 24 10.0237V12.0237H22V10.0237H13V26.0237H22V24.0237H24V26.0237C24 26.5541 23.7893 27.0628 23.4142 27.4379C23.0391 27.813 22.5304 28.0237 22 28.0237H13C12.4696 28.0237 11.9609 27.813 11.5858 27.4379C11.2107 27.0628 11 26.5541 11 26.0237V10.0237C11 9.49325 11.2107 8.98454 11.5858 8.60947C11.9609 8.2344 12.4696 8.02368 13 8.02368H22Z" fill="black"/>
</svg>
