<svg width="37" height="37" viewBox="0 0 37 37" fill="none" xmlns="http://www.w3.org/2000/svg">
<path d="M11 16C10.7348 16 10.4804 15.8946 10.2929 15.7071C10.1054 15.5196 10 15.2652 10 15C10 14.7348 10.1054 14.4804 10.2929 14.2929C10.4804 14.1054 10.7348 14 11 14H19C19.5304 14 20.0391 13.7893 20.4142 13.4142C20.7893 13.0391 21 12.5304 21 12C21 11.4696 20.7893 10.9609 20.4142 10.5858C20.0391 10.2107 19.5304 10 19 10C18.45 10 17.95 10.22 17.59 10.59C17.2 11 16.56 11 16.17 10.59C15.78 10.2 15.78 9.56 16.17 9.17C16.9 8.45 17.9 8 19 8C20.0609 8 21.0783 8.42143 21.8284 9.17157C22.5786 9.92172 23 10.9391 23 12C23 13.0609 22.5786 14.0783 21.8284 14.8284C21.0783 15.5786 20.0609 16 19 16H11ZM26 18C26.2652 18 26.5196 17.8946 26.7071 17.7071C26.8946 17.5196 27 17.2652 27 17C27 16.7348 26.8946 16.4804 26.7071 16.2929C26.5196 16.1054 26.2652 16 26 16C25.72 16 25.47 16.11 25.29 16.29C24.9 16.68 24.27 16.68 23.88 16.29C23.5 15.9 23.5 15.27 23.88 14.88C24.42 14.34 25.17 14 26 14C26.7956 14 27.5587 14.3161 28.1213 14.8787C28.6839 15.4413 29 16.2044 29 17C29 17.7956 28.6839 18.5587 28.1213 19.1213C27.5587 19.6839 26.7956 20 26 20H12C11.7348 20 11.4804 19.8946 11.2929 19.7071C11.1054 19.5196 11 19.2652 11 19C11 18.7348 11.1054 18.4804 11.2929 18.2929C11.4804 18.1054 11.7348 18 12 18H26ZM25 24H11C10.7348 24 10.4804 23.8946 10.2929 23.7071C10.1054 23.5196 10 23.2652 10 23C10 22.7348 10.1054 22.4804 10.2929 22.2929C10.4804 22.1054 10.7348 22 11 22H25C25.7956 22 26.5587 22.3161 27.1213 22.8787C27.6839 23.4413 28 24.2044 28 25C28 25.7956 27.6839 26.5587 27.1213 27.1213C26.5587 27.6839 25.7956 28 25 28C24.17 28 23.42 27.66 22.88 27.12C22.5 26.73 22.5 26.1 22.88 25.71C23.27 25.32 23.9 25.32 24.29 25.71C24.47 25.89 24.72 26 25 26C25.2652 26 25.5196 25.8946 25.7071 25.7071C25.8946 25.5196 26 25.2652 26 25C26 24.7348 25.8946 24.4804 25.7071 24.2929C25.5196 24.1054 25.2652 24 25 24Z" fill="black"/>
</svg>
