<svg width="37" height="38" viewBox="0 0 37 38" fill="none" xmlns="http://www.w3.org/2000/svg">
<g clip-path="url(#clip0_143_959)">
<path d="M16.0719 16.6551C15.3875 16.5192 14.75 17.0723 14.75 17.7707V20.1332C14.75 20.6113 15.0828 20.9957 15.5328 21.1645C16.3859 21.4832 17 22.3082 17 23.2738C17 24.516 15.9922 25.5238 14.75 25.5238C13.5078 25.5238 12.5 24.516 12.5 23.2738V11.6488C12.5 11.0254 11.9984 10.5238 11.375 10.5238H9.125C8.50156 10.5238 8 11.0254 8 11.6488V23.2738C8 27.4692 11.8484 30.7832 16.2031 29.8692C18.7531 29.3348 20.8109 27.2723 21.3453 24.727C22.1609 20.841 19.6109 17.3582 16.0719 16.6551ZM17.7969 6.02384C17.3656 6.0004 17 6.34259 17 6.77384V8.25509C17 8.65353 17.3094 8.98165 17.7031 9.0004C23.7687 9.32853 28.6437 14.2504 28.9953 20.3207C29.0187 20.7145 29.3469 21.0238 29.7406 21.0238H31.2453C31.6766 21.0238 32.0187 20.6582 31.9953 20.227C31.5969 12.577 25.4469 6.42697 17.7969 6.02384ZM17.8109 10.5238C17.375 10.491 17 10.8379 17 11.2785V12.7832C17 13.177 17.3047 13.5004 17.6938 13.5285C21.2938 13.8238 24.1625 16.7254 24.4859 20.3348C24.5234 20.7238 24.8422 21.0238 25.2313 21.0238H26.7406C27.1766 21.0238 27.5281 20.6488 27.4953 20.2129C27.1016 15.052 22.9719 10.9223 17.8109 10.5238V10.5238Z" fill="black"/>
</g>
<defs>
<clipPath id="clip0_143_959">
<rect width="24" height="24" fill="white" transform="translate(8 6.02368)"/>
</clipPath>
</defs>
</svg>
