<svg width="37" height="38" viewBox="0 0 37 38" fill="none" xmlns="http://www.w3.org/2000/svg">
<g clip-path="url(#clip0_143_901)">
<path d="M19.4915 13.8987C18.6756 13.8987 17.8781 14.1406 17.1997 14.5939C16.5214 15.0471 15.9927 15.6914 15.6805 16.4451C15.3682 17.1989 15.2866 18.0283 15.4457 18.8284C15.6049 19.6286 15.9977 20.3636 16.5746 20.9405C17.1515 21.5174 17.8865 21.9102 18.6867 22.0694C19.4869 22.2286 20.3163 22.1469 21.07 21.8347C21.8238 21.5225 22.468 20.9937 22.9213 20.3154C23.3745 19.637 23.6164 18.8395 23.6164 18.0237C23.6152 16.93 23.1802 15.8816 22.4069 15.1082C21.6336 14.3349 20.5851 13.8999 19.4915 13.8987V13.8987ZM19.4915 20.6487C18.9723 20.6487 18.4648 20.4947 18.0331 20.2063C17.6014 19.9178 17.2649 19.5079 17.0663 19.0282C16.8676 18.5486 16.8156 18.0208 16.9169 17.5116C17.0182 17.0024 17.2682 16.5346 17.6353 16.1675C18.0024 15.8004 18.4701 15.5504 18.9793 15.4491C19.4885 15.3478 20.0163 15.3998 20.496 15.5985C20.9756 15.7972 21.3856 16.1336 21.6741 16.5653C21.9625 16.997 22.1164 17.5045 22.1164 18.0237C22.1157 18.7196 21.8389 19.3869 21.3467 19.879C20.8546 20.3711 20.1874 20.6479 19.4915 20.6487V20.6487Z" fill="black"/>
<path d="M29.783 21.1323L28.2938 19.9063C28.5578 18.665 28.5578 17.3821 28.2938 16.1408L29.783 14.9149C29.9547 14.7741 30.0708 14.5769 30.1104 14.3584C30.1499 14.1399 30.1104 13.9144 29.9989 13.7224L28.4702 11.0748C28.3597 10.8821 28.1842 10.7351 27.9751 10.6601C27.7661 10.5852 27.5372 10.5871 27.3294 10.6655L25.5219 11.3428C24.5802 10.492 23.4694 9.84996 22.2622 9.45875L21.945 7.55698C21.9091 7.33781 21.7963 7.13859 21.6269 6.99503C21.4574 6.85147 21.2424 6.77296 21.0203 6.77356H17.963C17.7409 6.77297 17.5259 6.85148 17.3564 6.99503C17.187 7.13858 17.0742 7.33778 17.0382 7.55694L16.7213 9.45875C15.514 9.84995 14.4032 10.492 13.4616 11.3428L11.6538 10.6655C11.4461 10.587 11.2172 10.5851 11.0082 10.6601C10.7992 10.7351 10.6237 10.8821 10.5132 11.0747L8.98455 13.7225C8.87306 13.9146 8.83358 14.14 8.87317 14.3585C8.91277 14.577 9.02885 14.7743 9.20064 14.915L10.6897 16.1408C10.4257 17.3821 10.4257 18.665 10.6897 19.9063L9.2005 21.1323C9.02874 21.273 8.91269 21.4703 8.87312 21.6888C8.83355 21.9073 8.87305 22.1327 8.98455 22.3247L10.5132 24.9724C10.6238 25.165 10.7993 25.312 11.0083 25.387C11.2173 25.462 11.4463 25.46 11.654 25.3816L13.4616 24.7044C14.4032 25.5551 15.5141 26.1972 16.7213 26.5884L17.0383 28.4901C17.0742 28.7093 17.187 28.9085 17.3564 29.0521C17.5259 29.1956 17.7409 29.2741 17.963 29.2736H21.0203C21.2423 29.2742 21.4574 29.1957 21.6268 29.0521C21.7963 28.9086 21.9091 28.7094 21.945 28.4902L22.262 26.5884C23.4692 26.1972 24.5801 25.5551 25.5217 24.7044L27.3294 25.3817C27.5372 25.4601 27.766 25.462 27.9751 25.387C28.1841 25.312 28.3595 25.165 28.4701 24.9724L29.9986 22.3246C30.1101 22.1326 30.1497 21.9072 30.1102 21.6887C30.0707 21.4703 29.9547 21.273 29.783 21.1323V21.1323ZM27.4094 23.8098L25.1543 22.9649L24.8128 23.3087C23.8733 24.2557 22.6981 24.9348 21.4085 25.2762L20.9398 25.3997L20.5439 27.7736H18.4397L18.044 25.3997L17.5752 25.2762C16.2857 24.9348 15.1105 24.2557 14.1709 23.3087L13.8295 22.9649L11.574 23.8098L10.522 21.9874L12.3797 20.4582L12.2531 19.9907C11.905 18.7024 11.905 17.3448 12.2531 16.0565L12.3797 15.589L10.522 14.0598L11.5742 12.2374L13.8293 13.0822L14.1708 12.7385C15.1103 11.7915 16.2855 11.1123 17.5751 10.771L18.0438 10.6474L18.4395 8.27356H20.5439L20.9396 10.6474L21.4084 10.771C22.698 11.1123 23.8731 11.7915 24.8127 12.7385L25.1542 13.0822L27.4093 12.2374L28.4615 14.0597L26.6039 15.589L26.7304 16.0565C27.0785 17.3448 27.0785 18.7024 26.7304 19.9907L26.6039 20.4582L28.4615 21.9874L27.4094 23.8098Z" fill="black"/>
</g>
<defs>
<clipPath id="clip0_143_901">
<rect width="24" height="24" fill="white" transform="translate(8 6.02368)"/>
</clipPath>
</defs>
</svg>
