<svg width="37" height="37" viewBox="0 0 37 37" fill="none" xmlns="http://www.w3.org/2000/svg">
<path d="M28 17C28 22.55 24.16 27.74 19 29C13.84 27.74 10 22.55 10 17V11L19 7L28 11V17ZM19 27C22.75 26 26 21.54 26 17.22V12.3L19 9.18L12 12.3V17.22C12 21.54 15.25 26 19 27ZM19 11.68C19.5 11.68 19.95 12.11 19.95 12.63V16.11L25 19.26V20.53L19.95 18.95V22.42L21.21 23.37V24.32L19 23.68L16.79 24.32V23.37L18.05 22.42V18.95L13 20.53V19.26L18.05 16.11V12.63C18.05 12.11 18.5 11.68 19 11.68Z" fill="black"/>
</svg>
