<svg width="37" height="37" viewBox="0 0 37 37" fill="none" xmlns="http://www.w3.org/2000/svg">
<path fill-rule="evenodd" clip-rule="evenodd" d="M11 9.75C10.8011 9.75 10.6103 9.82902 10.4697 9.96967C10.329 10.1103 10.25 10.3011 10.25 10.5V12C10.25 12.1989 10.329 12.3897 10.4697 12.5303C10.6103 12.671 10.8011 12.75 11 12.75H12.5C12.6989 12.75 12.8897 12.671 13.0303 12.5303C13.171 12.3897 13.25 12.1989 13.25 12V10.5C13.25 10.3011 13.171 10.1103 13.0303 9.96967C12.8897 9.82902 12.6989 9.75 12.5 9.75H11ZM12.5 10.5H11V12H12.5V10.5Z" fill="black"/>
<path d="M15.5 11.25C15.5 11.0511 15.579 10.8603 15.7197 10.7197C15.8603 10.579 16.0511 10.5 16.25 10.5H29.75C29.9489 10.5 30.1397 10.579 30.2803 10.7197C30.421 10.8603 30.5 11.0511 30.5 11.25C30.5 11.4489 30.421 11.6397 30.2803 11.7803C30.1397 11.921 29.9489 12 29.75 12H16.25C16.0511 12 15.8603 11.921 15.7197 11.7803C15.579 11.6397 15.5 11.4489 15.5 11.25ZM16.25 16.5C16.0511 16.5 15.8603 16.579 15.7197 16.7197C15.579 16.8603 15.5 17.0511 15.5 17.25C15.5 17.4489 15.579 17.6397 15.7197 17.7803C15.8603 17.921 16.0511 18 16.25 18H29.75C29.9489 18 30.1397 17.921 30.2803 17.7803C30.421 17.6397 30.5 17.4489 30.5 17.25C30.5 17.0511 30.421 16.8603 30.2803 16.7197C30.1397 16.579 29.9489 16.5 29.75 16.5H16.25ZM16.25 22.5C16.0511 22.5 15.8603 22.579 15.7197 22.7197C15.579 22.8603 15.5 23.0511 15.5 23.25C15.5 23.4489 15.579 23.6397 15.7197 23.7803C15.8603 23.921 16.0511 24 16.25 24H29.75C29.9489 24 30.1397 23.921 30.2803 23.7803C30.421 23.6397 30.5 23.4489 30.5 23.25C30.5 23.0511 30.421 22.8603 30.2803 22.7197C30.1397 22.579 29.9489 22.5 29.75 22.5H16.25Z" fill="black"/>
<path fill-rule="evenodd" clip-rule="evenodd" d="M10.25 16.5C10.25 16.3011 10.329 16.1103 10.4697 15.9697C10.6103 15.829 10.8011 15.75 11 15.75H12.5C12.6989 15.75 12.8897 15.829 13.0303 15.9697C13.171 16.1103 13.25 16.3011 13.25 16.5V18C13.25 18.1989 13.171 18.3897 13.0303 18.5303C12.8897 18.671 12.6989 18.75 12.5 18.75H11C10.8011 18.75 10.6103 18.671 10.4697 18.5303C10.329 18.3897 10.25 18.1989 10.25 18V16.5ZM11 16.5H12.5V18H11V16.5ZM11 21.75C10.8011 21.75 10.6103 21.829 10.4697 21.9697C10.329 22.1103 10.25 22.3011 10.25 22.5V24C10.25 24.1989 10.329 24.3897 10.4697 24.5303C10.6103 24.671 10.8011 24.75 11 24.75H12.5C12.6989 24.75 12.8897 24.671 13.0303 24.5303C13.171 24.3897 13.25 24.1989 13.25 24V22.5C13.25 22.3011 13.171 22.1103 13.0303 21.9697C12.8897 21.829 12.6989 21.75 12.5 21.75H11ZM12.5 22.5H11V24H12.5V22.5Z" fill="black"/>
</svg>
