<svg width="37" height="37" viewBox="0 0 37 37" fill="none" xmlns="http://www.w3.org/2000/svg">
<g clip-path="url(#clip0_143_493)">
<path d="M10 19H16C16.55 19 17 18.55 17 18V10C17 9.45 16.55 9 16 9H10C9.45 9 9 9.45 9 10V18C9 18.55 9.45 19 10 19ZM10 27H16C16.55 27 17 26.55 17 26V22C17 21.45 16.55 21 16 21H10C9.45 21 9 21.45 9 22V26C9 26.55 9.45 27 10 27ZM20 27H26C26.55 27 27 26.55 27 26V18C27 17.45 26.55 17 26 17H20C19.45 17 19 17.45 19 18V26C19 26.55 19.45 27 20 27ZM19 10V14C19 14.55 19.45 15 20 15H26C26.55 15 27 14.55 27 14V10C27 9.45 26.55 9 26 9H20C19.45 9 19 9.45 19 10Z" fill="#323232"/>
</g>
<defs>
<clipPath id="clip0_143_493">
<rect width="24" height="24" fill="white" transform="translate(6 6)"/>
</clipPath>
</defs>
</svg>
