<svg width="37" height="38" viewBox="0 0 37 38" fill="none" xmlns="http://www.w3.org/2000/svg">
<g clip-path="url(#clip0_143_842)">
<path d="M23.5 15.0237C23.5 16.2172 23.0259 17.3617 22.182 18.2057C21.3381 19.0496 20.1935 19.5237 19 19.5237C17.8065 19.5237 16.6619 19.0496 15.818 18.2057C14.9741 17.3617 14.5 16.2172 14.5 15.0237C14.5 13.8302 14.9741 12.6856 15.818 11.8417C16.6619 10.9978 17.8065 10.5237 19 10.5237C20.1935 10.5237 21.3381 10.9978 22.182 11.8417C23.0259 12.6856 23.5 13.8302 23.5 15.0237V15.0237Z" fill="black"/>
<path fill-rule="evenodd" clip-rule="evenodd" d="M7 18.0237C7 14.8411 8.26428 11.7888 10.5147 9.5384C12.7652 7.28796 15.8174 6.02368 19 6.02368C22.1826 6.02368 25.2348 7.28796 27.4853 9.5384C29.7357 11.7888 31 14.8411 31 18.0237C31 21.2063 29.7357 24.2585 27.4853 26.509C25.2348 28.7594 22.1826 30.0237 19 30.0237C15.8174 30.0237 12.7652 28.7594 10.5147 26.509C8.26428 24.2585 7 21.2063 7 18.0237V18.0237ZM19 7.52368C17.0227 7.52379 15.0855 8.08223 13.4116 9.13472C11.7377 10.1872 10.3949 11.691 9.53795 13.473C8.68097 15.2549 8.34458 17.2427 8.5675 19.2074C8.79042 21.1721 9.56358 23.034 10.798 24.5787C11.863 22.8627 14.2075 21.0237 19 21.0237C23.7925 21.0237 26.1355 22.8612 27.202 24.5787C28.4364 23.034 29.2096 21.1721 29.4325 19.2074C29.6554 17.2427 29.319 15.2549 28.4621 13.473C27.6051 11.691 26.2623 10.1872 24.5884 9.13472C22.9145 8.08223 20.9773 7.52379 19 7.52368V7.52368Z" fill="black"/>
</g>
<defs>
<clipPath id="clip0_143_842">
<rect width="24" height="24" fill="white" transform="translate(7 6.02368)"/>
</clipPath>
</defs>
</svg>
